<svg width="48" height="48" viewBox="0 0 48 48" fill="none" xmlns="http://www.w3.org/2000/svg">
<rect width="20" height="20" transform="translate(14 14)" fill="white" fill-opacity="0.01" style="mix-blend-mode:multiply"/>
<path d="M32.125 31.2412L27.405 26.5211C28.5392 25.1595 29.1047 23.413 28.984 21.6449C28.8633 19.8769 28.0657 18.2235 26.7569 17.0286C25.4482 15.8337 23.7292 15.1894 21.9575 15.2297C20.1858 15.2699 18.4979 15.9917 17.2448 17.2448C15.9917 18.4979 15.2699 20.1858 15.2297 21.9575C15.1894 23.7292 15.8338 25.4482 17.0286 26.7569C18.2235 28.0656 19.8769 28.8633 21.645 28.984C23.413 29.1047 25.1595 28.5391 26.5212 27.4049L31.2412 32.125L32.125 31.2412ZM16.5 22.125C16.5 21.0125 16.8299 19.9249 17.448 18.9999C18.0661 18.0749 18.9446 17.3539 19.9724 16.9282C21.0003 16.5024 22.1313 16.391 23.2224 16.6081C24.3136 16.8251 25.3158 17.3608 26.1025 18.1475C26.8892 18.9342 27.4249 19.9365 27.6419 21.0276C27.859 22.1188 27.7476 23.2498 27.3218 24.2776C26.8961 25.3054 26.1751 26.1839 25.2501 26.802C24.3251 27.4201 23.2375 27.75 22.125 27.75C20.6337 27.7483 19.2039 27.1552 18.1494 26.1006C17.0948 25.0461 16.5017 23.6163 16.5 22.125Z" fill="#161616"/>
</svg>
