<?xml version="1.0" encoding="utf-8"?>
<!-- Generator: Adobe Illustrator 26.3.1, SVG Export Plug-In . SVG Version: 6.00 Build 0)  -->
<svg version="1.1" id="Layer_1" xmlns="http://www.w3.org/2000/svg" xmlns:xlink="http://www.w3.org/1999/xlink" x="0px" y="0px"
	 width="45px" height="45px" viewBox="0 0 45 45" style="enable-background:new 0 0 45 45;" xml:space="preserve">
<style type="text/css">
	.st0{fill:none;stroke:#FFFFFF;stroke-width:2;stroke-miterlimit:10;}
</style>
<g>
	<circle class="st0" cx="22.5" cy="22.5" r="18.8"/>
</g>
<path class="st0" d="M21.1,24.3c1.7,2.2,4.8,2.7,7,1c0.2-0.1,0.4-0.3,0.5-0.5l3-3c1.9-2,1.9-5.2-0.1-7.1c-1.9-1.9-5-1.9-6.9,0
	l-1.7,1.7"/>
<path class="st0" d="M25.1,22.3c-1.7-2.2-4.8-2.7-7-1c-0.2,0.1-0.4,0.3-0.5,0.5l-3,3c-1.9,2-1.9,5.2,0.1,7.1c1.9,1.9,5,1.9,6.9,0
	l1.7-1.7"/>
</svg>
