<svg version="1.1" id="Layer_1" xmlns="http://www.w3.org/2000/svg" x="0" y="0" width="205" height="135" viewBox="0 0 205 135" xml:space="preserve"><style type="text/css">.st0{fill:#fff}</style><path class="st0" d="M34 33.5h11.3v41.7H34zm56.9 9.8l-10 5.5c-2-3.5-5.1-5.3-9.2-5.3-5.8 0-10.1 4.4-10.1 10.8 0 7.1 4.9 10.8 10.1 10.8 4 0 7.1-1.8 9.4-5.2l9.3 6.5c-4 5.9-10.3 9.6-18.6 9.6-12.9 0-22-8.9-22-21.6 0-12.7 9.1-21.6 22-21.6 8.2 0 15.4 3.9 19.1 10.5m15.5 21.6h6.8c6.8 0 10.2-4.4 10.2-10.5s-3.3-10.5-10.2-10.5h-6.8v21zm28.7-10.5c0 12.6-8.6 20.9-21.6 20.9H95.1V33.5h18.4c13 0 21.6 8.3 21.6 20.9m4.5 20.9V33.5h11.3v31.3H171v10.5z"/><path class="st0" d="M5.7 5.2v98.4h193.6V64.8H188v27.5H17V16.6h133.9V5.2zm165.3 0v11.4h17v16.9h11.3V5.2zM5.7 115.2v2.1h3.4v9.1h2.3v-9.1h3.4v-2.1zm14.4 3.3c1.8 0 3 1.2 3 3v4.9H21v-4.3c0-1.1-.6-1.7-1.5-1.7s-1.6.6-1.6 1.8v4.2h-2.1v-11.5h2.1v4.6c.5-.7 1.3-1 2.2-1m6.4 3.3h3.4c-.2-1-.8-1.6-1.7-1.6-1 .1-1.6.7-1.7 1.6m5.5.8v.7h-5.5c.2 1.1 1 1.6 2 1.6.7 0 1.4-.3 2-.7l1.2 1.3c-.9.8-2 1.2-3.3 1.2-2.4 0-4-1.6-4-4.1 0-2.4 1.6-4.1 3.9-4.1 2.1 0 3.7 1.6 3.7 4.1m7.4 1.8h2.4c2.4 0 3.5-1.5 3.5-3.5 0-2.1-1.1-3.5-3.5-3.5h-2.4v7zm8.2-3.6c0 3.4-2.3 5.6-5.8 5.6h-4.6v-11.2h4.6c3.5 0 5.8 2.3 5.8 5.6m1.5-2.1h2.1v7.7h-2.1v-7.7zm2.3-2.5c0 .8-.6 1.3-1.3 1.3-.8 0-1.3-.6-1.3-1.3 0-.8.6-1.3 1.3-1.3.7-.1 1.3.5 1.3 1.3m3.1 6.2c0 1.1.8 2 2 2s1.9-.9 1.9-2c0-1.2-.8-2-1.9-2-1.2 0-2 .9-2 2m3.9-2.8v-.9h2v7.1c0 2.5-1.6 4-4.2 4-1.2 0-2.5-.3-3.4-.9l.7-1.7c.8.5 1.6.8 2.6.8 1.3 0 2.2-.7 2.2-2.1v-.5c-.5.6-1.3 1-2.4 1-1.9 0-3.6-1.6-3.6-3.9 0-2.4 1.7-4 3.6-4 1.1 0 1.9.4 2.5 1.1m3.8-.9h2.1v7.7h-2.1v-7.7zm2.3-2.5c0 .8-.6 1.3-1.3 1.3-.8 0-1.3-.6-1.3-1.3 0-.8.6-1.3 1.3-1.3.7-.1 1.3.5 1.3 1.3m4.2 4.3v2.8c0 1 .5 1.3 1.2 1.3.5 0 1-.2 1.5-.5l.8 1.6c-.7.5-1.5.8-2.6.8-1.9 0-2.9-1.1-2.9-3.1v-3h-1.5v-1.9h1.5v-2.3h2.1v2.3h2.8v1.9h-2.9zm5.7 2.1c0 1.2.8 2.1 2 2.1s2-.9 2-2.1c0-1.2-.8-2.1-2-2.1-1.2-.1-2 .9-2 2.1m4 3.8v-.9c-.5.6-1.3 1.1-2.3 1.1-2.1 0-3.8-1.8-3.8-4.1s1.6-4.1 3.8-4.1c1.1 0 1.8.4 2.3 1.1v-.9h2v7.7h-2zm3.8-11.5h2.1v11.5h-2.1zm12.2 2.2c-1.2 0-2.1.5-2.1 1.3s1 1.1 2.3 1.3l.6.1c2 .3 3.6 1.2 3.6 3.1 0 2.5-2.2 3.6-4.6 3.6-1.7 0-3.5-.5-4.7-1.5l1.2-1.8c.8.6 2.1 1.2 3.6 1.2 1.2 0 2.2-.5 2.2-1.4 0-.8-.8-1.1-2.4-1.3l-.7-.1c-2-.3-3.4-1.2-3.4-3.2 0-2.3 2.1-3.5 4.5-3.5 1.6 0 2.9.4 4.3 1.2l-1.1 1.8c-1.1-.4-2.1-.8-3.3-.8m8.6 4.3l2.2-2.7h2.5l-3 3.6 3.1 4.1h-2.6l-2.2-3.1h-.7v3.1h-2.1v-11.5h2.1v6.5zm5.5-2.7h2.1v7.7h-2.1v-7.7zm2.4-2.5c0 .8-.6 1.3-1.3 1.3-.8 0-1.3-.6-1.3-1.3 0-.8.6-1.3 1.3-1.3.7-.1 1.3.5 1.3 1.3m1.5-1.3h2.1v11.5h-2.1zm3.8 0h2.1v11.5h-2.1zm6.9 5.3c-.8 0-1.2.3-1.2.7 0 .5.6.6 1.3.7l.7.1c1.7.3 2.6 1 2.6 2.3 0 1.6-1.3 2.6-3.6 2.6-1.1 0-2.4-.2-3.4-.9l.8-1.6c.7.4 1.5.8 2.6.8 1 0 1.4-.3 1.4-.7 0-.4-.4-.6-1.3-.7l-.6-.1c-1.8-.2-2.7-1-2.7-2.4 0-1.6 1.2-2.5 3.3-2.5 1.2 0 2.2.2 3.2.7l-.7 1.6c-.6-.2-1.6-.6-2.4-.6m12.9-3.1c-1.2 0-2.1.5-2.1 1.3s1 1.1 2.3 1.3l.6.1c2 .3 3.6 1.2 3.6 3.1 0 2.5-2.2 3.6-4.6 3.6-1.7 0-3.5-.5-4.7-1.5l1.2-1.8c.8.6 2.1 1.2 3.6 1.2 1.2 0 2.2-.5 2.2-1.4 0-.8-.8-1.1-2.4-1.3l-.7-.1c-2-.3-3.4-1.2-3.4-3.2 0-2.3 2.1-3.5 4.5-3.5 1.6 0 2.9.4 4.3 1.2l-1.1 1.8c-1-.4-2.1-.8-3.3-.8m8.3 3.4v2.8c0 1 .5 1.3 1.2 1.3.5 0 1-.2 1.5-.5l.8 1.6c-.7.5-1.5.8-2.6.8-1.9 0-2.9-1.1-2.9-3.1v-3h-1.5v-1.9h1.5v-2.3h2.1v2.3h2.8v1.9h-2.9zm5.8 2.1c0 1.2.8 2.1 2 2.1s2-.9 2-2.1c0-1.2-.8-2.1-2-2.1-1.3-.1-2 .9-2 2.1m3.9 3.8v-.9c-.5.6-1.3 1.1-2.3 1.1-2.1 0-3.7-1.8-3.7-4.1s1.6-4.1 3.7-4.1c1.1 0 1.8.4 2.3 1.1v-.9h2v7.7h-2zm11.1-4.9v4.9H163v-4.3c0-1.1-.6-1.7-1.5-1.7s-1.6.6-1.6 1.8v4.2h-2.1v-7.7h2v.9c.6-.8 1.4-1.1 2.3-1.1 1.7 0 3 1.2 3 3m3.4 1.1c0 1.2.8 2.1 2 2.1s2-.9 2-2.1c0-1.2-.8-2.1-2-2.1-1.3-.1-2 .9-2 2.1m3.9-3.1v-4.6h2.1v11.5h-2v-.9c-.5.6-1.3 1.1-2.3 1.1-2.1 0-3.7-1.8-3.7-4.1s1.6-4.1 3.7-4.1c.9.1 1.6.5 2.2 1.1m5.5 3.1c0 1.2.8 2.1 2 2.1s2-.9 2-2.1c0-1.2-.8-2.1-2-2.1-1.3-.1-2 .9-2 2.1m3.9 3.8v-.9c-.5.6-1.3 1.1-2.3 1.1-2.1 0-3.8-1.8-3.8-4.1s1.6-4.1 3.8-4.1c1.1 0 1.8.4 2.3 1.1v-.9h2v7.7h-2zm9.1-7.8l-.3 2.1c-.3-.2-.8-.2-1.3-.2-1 0-1.6.6-1.6 1.7v4.2h-2.1v-7.7h2v.8c.5-.7 1.2-1.1 2.2-1.1.4.1.8.1 1.1.2m2.5 4c0 1.2.8 2.1 2 2.1s2-.9 2-2.1c0-1.2-.8-2.1-2-2.1-1.3-.1-2 .9-2 2.1m3.9-3.1v-4.6h2.1v11.5h-2v-.9c-.5.6-1.3 1.1-2.3 1.1-2.1 0-3.7-1.8-3.7-4.1s1.6-4.1 3.7-4.1c.9.1 1.6.5 2.2 1.1"/></svg>